# xmcd
#
# Track frame offsets:
#	150
#	16301
#	29996
#	40593
#	59377
#	89786
#	101934
#	119591
#	134868
#	143880
#	152446
#	175241
#	192219
#
# Disc length: 2686 seconds
# Revision: 0
# Processed by: cddbd v1.5.2PL0 Copyright (c) Steve Scherf et al.
# Submitted via: dBpowerAMP V12.0
#
DISCID=c30a7c0d
DTITLE=Various Artist - Heroes Last Forever
DYEAR=2011
DGENRE=Americana
TTITLE0=Antsy McClain and The Trailer Park Troubadours - Everything's a Dollar
TTITLE1=Antsy McClain and The Trailer Park Troubadours - A Poor Man's Education
TTITLE2=Antsy McClain and The Trailer Park Troubadours. featuring Bobby Cochran - Summertime Blues
TTITLE3=Antsy McClain and The Trailer Park Troubadours - My Baby Whistles When She Walks
TTITLE4=Antsy McClain and The Trailer Park Troubadours - Aunt Beulahs Road Kill Overcoat
TTITLE5=Antsy McClain and The Trailer Park Troubadours - In Between the Goodbye and the Getting Over You
TTITLE6=Antsy McClain and The Trailer Park Troubadours - In a Perfect World
TTITLE7=Antsy McClain and The Trailer Park Troubadours - Leftover Birds
TTITLE8=Antsy McClain and The Trailer Park Troubadours - John Lennon As An Old Man
TTITLE9=Antsy McClain and The Trailer Park Troubadours - I Might As Well Be Talking to the Wall
TTITLE10=Antsy McClain and The Trailer Park Troubadours - The Ballad of Skippy and Rover
TTITLE11=Antsy McClain and The Trailer Park Troubadours - Facebook Blues
TTITLE12=Antsy McClain and The Trailer Park Troubadours, featuring Lauren - I Might As Well Be Talking to the Wall (featuring Lauren, 5 years old)
EXTD=
EXTT0=
EXTT1=
EXTT2=
EXTT3=
EXTT4=
EXTT5=
EXTT6=
EXTT7=
EXTT8=
EXTT9=
EXTT10=
EXTT11=
EXTT12=
PLAYORDER=
